<svg xmlns="http://www.w3.org/2000/svg" xmlns:xlink="http://www.w3.org/1999/xlink" width="221.375" height="221.375" viewBox="0 0 221.375 221.375">
  <defs>
    <filter id="Tracé_84" x="0" y="0" width="221.375" height="221.375" filterUnits="userSpaceOnUse">
      <feOffset dy="3" input="SourceAlpha"/>
      <feGaussianBlur stdDeviation="3" result="blur"/>
      <feFlood flood-opacity="0.867"/>
      <feComposite operator="in" in2="blur"/>
      <feComposite in="SourceGraphic"/>
    </filter>
  </defs>
  <g id="logo-afpa" transform="translate(9 6)">
    <g transform="matrix(1, 0, 0, 1, -9, -6)" filter="url(#Tracé_84)">
      <path id="Tracé_84-2" data-name="Tracé 84" d="M102.988,1A101.688,101.688,0,1,0,204.675,102.688V1Z" transform="translate(7.7 5)" fill="#f8f8f8"/>
    </g>
    <path id="Tracé_85" data-name="Tracé 85" d="M33.893,83.107A19.114,19.114,0,1,1,53.007,63.993,19.17,19.17,0,0,1,33.893,83.107M56.065,43.732a2.53,2.53,0,0,0-2.485,2.485v4.205A23.9,23.9,0,1,0,33.893,87.886,23.779,23.779,0,0,0,53.58,77.564v8.028a2.485,2.485,0,1,0,4.97,0V46.217A2.53,2.53,0,0,0,56.065,43.732Z" transform="translate(6.629 34.637)" fill="#282a36"/>
    <path id="Tracé_86" data-name="Tracé 86" d="M94.484,83.107A19.114,19.114,0,1,1,113.6,63.993,19.17,19.17,0,0,1,94.484,83.107m21.981-39.375a2.53,2.53,0,0,0-2.485,2.485v4.205A23.908,23.908,0,0,0,70.4,63.993,24.066,24.066,0,0,0,94.484,87.886a23.779,23.779,0,0,0,19.688-10.322v8.028a2.485,2.485,0,1,0,4.97,0V46.217A2.854,2.854,0,0,0,116.465,43.732Z" transform="translate(61.679 34.637)" fill="#282a36"/>
    <path id="Tracé_87" data-name="Tracé 87" d="M68.357,83.107A19.114,19.114,0,1,1,87.472,63.993,19.17,19.17,0,0,1,68.357,83.107m0-43.007A23.779,23.779,0,0,0,48.67,50.422V46.217a2.485,2.485,0,1,0-4.97,0V117.13a2.485,2.485,0,1,0,4.97,0V77.564A23.9,23.9,0,1,0,68.357,40.1Z" transform="translate(37.344 34.637)" fill="#282a36"/>
    <path id="Tracé_88" data-name="Tracé 88" d="M64.818,48.681A2.53,2.53,0,0,0,62.333,46.2H46.086V41.036c0-8.984,4.779-9.366,5.352-9.366h10.9a2.53,2.53,0,0,0,2.485-2.485,2.487,2.487,0,0,0-2.1-2.485H51.629c-.382,0-10.131.191-10.131,14.145v5.161H37.485a2.485,2.485,0,1,0,0,4.97H41.5V97.614a2.485,2.485,0,1,0,4.97,0V51.166H62.716a2.5,2.5,0,0,0,2.1-2.485" transform="translate(29.415 22.424)" fill="#282a36"/>
  </g>
</svg>
