<svg xmlns="http://www.w3.org/2000/svg" width="55.83" height="63.308" viewBox="0 0 55.83 63.308">
  <g id="Groupe_80" data-name="Groupe 80" transform="translate(-1009.559 -2591.296)">
    <g id="HTML5Logo" transform="translate(1009.559 2591.296)">
      <path id="Tracé_2" data-name="Tracé 2" d="M79.678,157.6l-5.078-57h55.83l-5.078,56.97-22.883,6.338" transform="translate(-74.6 -100.6)" fill="#1189b2"/>
      <path id="Tracé_3" data-name="Tracé 3" d="M256,184.783V131h22.822l-4.355,48.629" transform="translate(-228.085 -126.322)" fill="#17b5eb"/>
    </g>
    <path id="path14" d="M46.483,5.993h3V9.056h1.515a6.57,6.57,0,0,0,2.082-.349,5.332,5.332,0,0,0,1.012-.457,3.758,3.758,0,0,1-.7-1.937,4.091,4.091,0,0,1,.735-2.883l.315-.364.375.3A4.771,4.771,0,0,1,56.691,6.4a4.579,4.579,0,0,1,3.477.323l.411.237-.217.423a4.332,4.332,0,0,1-4.355,2.077c-2.594,6.461-8.242,9.52-15.09,9.52-3.538,0-6.784-1.322-8.632-4.461-.108-.195-.2-.4-.3-.6a8.69,8.69,0,0,1-.692-4.408l.042-.453H33.9V5.993h3V3h5.992V0h3.6V5.993" transform="translate(993.164 2609.897)" fill="#394d54"/>
  </g>
</svg>
