<svg xmlns="http://www.w3.org/2000/svg" width="36.996" height="37.04" viewBox="0 0 36.996 37.04">
  <path id="Octicons-mark-github" d="M18.5,0A18.743,18.743,0,0,0,0,18.989,18.938,18.938,0,0,0,12.648,37c.925.166,1.272-.4,1.272-.9,0-.451-.023-1.946-.023-3.537-4.648.878-5.85-1.163-6.22-2.231a6.9,6.9,0,0,0-1.9-2.682c-.647-.356-1.572-1.234-.023-1.258,1.457-.024,2.5,1.377,2.844,1.946a3.9,3.9,0,0,0,5.387,1.567,4.034,4.034,0,0,1,1.179-2.54c-4.116-.475-8.417-2.112-8.417-9.376a7.5,7.5,0,0,1,1.9-5.1,6.991,6.991,0,0,1,.185-5.032s1.549-.5,5.087,1.946a17.005,17.005,0,0,1,9.249,0c3.538-2.469,5.087-1.946,5.087-1.946a6.991,6.991,0,0,1,.185,5.032,7.457,7.457,0,0,1,1.9,5.1c0,7.287-4.324,8.9-8.44,9.376a4.561,4.561,0,0,1,1.249,3.513c0,2.54-.023,4.581-.023,5.222,0,.5.347,1.092,1.272.9A18.983,18.983,0,0,0,37,18.989,18.743,18.743,0,0,0,18.5,0Z" fill="#282a36" fill-rule="evenodd"/>
</svg>
