<svg xmlns="http://www.w3.org/2000/svg" width="36.58" height="36.812" viewBox="0 0 36.58 36.812">
  <g id="layer1" transform="translate(0 0)">
    <g id="g3019" transform="translate(0)">
      <path id="path14" d="M243.836-99.65a2.671,2.671,0,0,1,2.7-2.637h31.174a2.671,2.671,0,0,1,2.7,2.637v31.538a2.671,2.671,0,0,1-2.7,2.637H246.54a2.671,2.671,0,0,1-2.7-2.637Z" transform="translate(-243.836 102.287)" fill="#282a36"/>
      <path id="path28" d="M260.535-64.852V-81.475H255.01v16.623Zm-2.763-18.892a2.882,2.882,0,0,0,3.126-2.872,2.871,2.871,0,0,0-3.089-2.872,2.883,2.883,0,0,0-3.126,2.872,2.86,2.86,0,0,0,3.053,2.872h.036Z" transform="translate(-249.446 95.667)" fill="#f8f8f8" fill-rule="evenodd"/>
      <path id="path30" d="M273.136-56.685h5.525v-9.283a3.787,3.787,0,0,1,.182-1.348,3.024,3.024,0,0,1,2.835-2.021c2,0,2.8,1.524,2.8,3.759v8.893H290v-9.531c0-5.106-2.726-7.482-6.361-7.482a5.5,5.5,0,0,0-5.016,2.8h.037v-2.411h-5.525c.072,1.56,0,16.623,0,16.623Z" transform="translate(-258.99 87.501)" fill="#f8f8f8" fill-rule="evenodd"/>
    </g>
  </g>
</svg>
