<svg xmlns="http://www.w3.org/2000/svg" xmlns:xlink="http://www.w3.org/1999/xlink" width="128.873" height="128.872" viewBox="0 0 128.873 128.872">
  <defs>
    <filter id="MacOS_logo" x="0" y="0" width="128.873" height="128.872" filterUnits="userSpaceOnUse">
      <feOffset dy="3" input="SourceAlpha"/>
      <feGaussianBlur stdDeviation="3" result="blur"/>
      <feFlood flood-opacity="0.161"/>
      <feComposite operator="in" in2="blur"/>
      <feComposite in="SourceGraphic"/>
    </filter>
  </defs>
  <g transform="matrix(1, 0, 0, 1, 0, 0)" filter="url(#MacOS_logo)">
    <path id="MacOS_logo-2" data-name="MacOS_logo" d="M61.273,37.033v-.914l-2.84.2a3.524,3.524,0,0,0-1.814.51,1.5,1.5,0,0,0-.005,2.41,2.639,2.639,0,0,0,1.614.446,3.607,3.607,0,0,0,1.2-.2,3,3,0,0,0,.97-.55,2.467,2.467,0,0,0,.639-.834A2.434,2.434,0,0,0,61.273,37.033ZM55.686.25A55.034,55.034,0,0,0,.25,55.686a55.032,55.032,0,0,0,55.436,55.436,55.032,55.032,0,0,0,55.436-55.436A55.032,55.032,0,0,0,55.686.25ZM66.448,33.108a5.5,5.5,0,0,1,1.109-1.889,4.853,4.853,0,0,1,1.726-1.21,6.211,6.211,0,0,1,4.267-.091,4.873,4.873,0,0,1,1.544.9,4.287,4.287,0,0,1,1.023,1.317,4.427,4.427,0,0,1,.452,1.592H74.342a2.864,2.864,0,0,0-.3-.86,2.352,2.352,0,0,0-.569-.689,2.674,2.674,0,0,0-.834-.457,3.252,3.252,0,0,0-1.082-.166,2.8,2.8,0,0,0-2.271,1.093,3.82,3.82,0,0,0-.633,1.269,5.681,5.681,0,0,0-.227,1.662,5.789,5.789,0,0,0,.227,1.694,3.656,3.656,0,0,0,.641,1.264,2.77,2.77,0,0,0,1,.791,2.98,2.98,0,0,0,1.28.275,3.036,3.036,0,0,0,1.862-.537,2.51,2.51,0,0,0,.935-1.571h2.228a4.431,4.431,0,0,1-.5,1.667,4.294,4.294,0,0,1-1.058,1.285,4.72,4.72,0,0,1-1.534.823,6.2,6.2,0,0,1-1.937.291,5.934,5.934,0,0,1-2.26-.414,4.855,4.855,0,0,1-1.734-1.189,5.324,5.324,0,0,1-1.114-1.883,7.449,7.449,0,0,1-.393-2.5,7.205,7.205,0,0,1,.387-2.466ZM34.781,29.737h2.228v1.98h.043a3.293,3.293,0,0,1,.534-.882,3.334,3.334,0,0,1,.759-.663,3.472,3.472,0,0,1,.946-.419,4.032,4.032,0,0,1,1.087-.144,3.542,3.542,0,0,1,2.071.585,3.14,3.14,0,0,1,1.2,1.683H43.7a3.506,3.506,0,0,1,.59-.946,3.782,3.782,0,0,1,.839-.716,3.9,3.9,0,0,1,1.039-.452,4.435,4.435,0,0,1,1.189-.155,4.253,4.253,0,0,1,1.566.275,3.464,3.464,0,0,1,1.2.775,3.376,3.376,0,0,1,.769,1.216,4.475,4.475,0,0,1,.27,1.587v7.964H48.847V34.019a2.5,2.5,0,0,0-.593-1.782,2.2,2.2,0,0,0-1.688-.631,2.523,2.523,0,0,0-.986.19,2.25,2.25,0,0,0-.769.529,2.375,2.375,0,0,0-.5.812,2.823,2.823,0,0,0-.184,1.034v7.253H41.829v-7.6a2.541,2.541,0,0,0-.158-.914,1.964,1.964,0,0,0-.446-.7,1.94,1.94,0,0,0-.705-.446,2.635,2.635,0,0,0-.932-.158,2.469,2.469,0,0,0-1,.2,2.351,2.351,0,0,0-.785.553,2.517,2.517,0,0,0-.51.839,3.126,3.126,0,0,0-.31,1.053v7.168h-2.2V29.737Zm5.057,55.941c-10.219,0-16.628-7.1-16.628-18.434s6.409-18.458,16.628-18.458,16.6,7.125,16.6,18.458-6.385,18.434-16.6,18.434ZM58.759,41.4a4.653,4.653,0,0,1-1.157.144,4.9,4.9,0,0,1-1.6-.248,3.684,3.684,0,0,1-1.248-.7,3.138,3.138,0,0,1-.812-1.093,3.4,3.4,0,0,1-.291-1.427,2.843,2.843,0,0,1,1.146-2.4A6.115,6.115,0,0,1,58.12,34.66l3.153-.182v-.9a1.877,1.877,0,0,0-.641-1.539,2.791,2.791,0,0,0-1.814-.526,3.231,3.231,0,0,0-.884.118,2.429,2.429,0,0,0-.721.339,1.94,1.94,0,0,0-.516.529,1.889,1.889,0,0,0-.281.684H54.23a3.1,3.1,0,0,1,.382-1.432,3.689,3.689,0,0,1,.98-1.141,4.626,4.626,0,0,1,1.459-.753,5.987,5.987,0,0,1,1.83-.27,6.417,6.417,0,0,1,1.932.27,4.394,4.394,0,0,1,1.48.769,3.425,3.425,0,0,1,.946,1.2,3.653,3.653,0,0,1,.334,1.576v8.018H61.348V39.475h-.056a3.511,3.511,0,0,1-.628.855,4.033,4.033,0,0,1-.86.652,4.326,4.326,0,0,1-1.045.414Zm14.7,44.282C65.668,85.678,60.37,81.6,60,75.186h5.073c.4,3.663,3.935,6.089,8.784,6.089,4.651,0,7.994-2.426,7.994-5.741,0-2.869-2.03-4.6-6.73-5.789l-4.579-1.138c-6.583-1.632-9.575-4.627-9.575-9.551,0-6.062,5.3-10.27,12.843-10.27,7.374,0,12.519,4.232,12.717,10.318H81.5c-.347-3.663-3.34-5.915-7.8-5.915-4.43,0-7.5,2.276-7.5,5.568,0,2.6,1.929,4.133,6.631,5.319l3.861.964c7.35,1.782,10.369,4.678,10.369,9.874,0,6.631-5.247,10.764-13.612,10.764ZM39.838,53.335c-7,0-11.381,5.37-11.381,13.906,0,8.512,4.379,13.882,11.381,13.882,6.978,0,11.381-5.37,11.381-13.882,0-8.536-4.4-13.906-11.381-13.906Z" transform="translate(8.75 5.75)" fill="#282a36"/>
  </g>
</svg>
