<svg xmlns="http://www.w3.org/2000/svg" xmlns:xlink="http://www.w3.org/1999/xlink" width="221" height="221" viewBox="0 0 221 221">
  <defs>
    <filter id="path8" x="0" y="0" width="221" height="221" filterUnits="userSpaceOnUse">
      <feOffset dy="3" input="SourceAlpha"/>
      <feGaussianBlur stdDeviation="3" result="blur"/>
      <feFlood flood-opacity="0.769"/>
      <feComposite operator="in" in2="blur"/>
      <feComposite in="SourceGraphic"/>
    </filter>
  </defs>
  <g transform="matrix(1, 0, 0, 1, 0, 0)" filter="url(#path8)">
    <path id="path8-2" data-name="path8" d="M0,0H203V203H0ZM177.339,93.212c-.152-3.06-.508-6.129-.72-9.169a7.369,7.369,0,0,0-1.672-4.148,10.436,10.436,0,0,0-4.343-3.132c-3.42-1.329-6.866-2.811-10.307-4.127A91.048,91.048,0,0,1,146.15,66.4a11.116,11.116,0,0,1-5.486-8.348,12.5,12.5,0,0,0-6.223-9.431,17.2,17.2,0,0,0-12.521-1.482,19.062,19.062,0,0,1-9.44-.14l-4.707-1.439-1.278-.381-3.7-1.1c-6.646-1.981-9.431-3.018-20.2-1.177A62.133,62.133,0,0,0,52.583,59.4L25.618,88.018H49.831L35,103.722H60.507l-14.828,15.7h20.5l-6.553,17.186c25.1,25.695,51.855,30.88,51.855,30.88,0-7.082,1.609-34.88,3.5-39.537a22.222,22.222,0,0,1,3.226-6.519,17.826,17.826,0,0,1,14.363-6.549,45.383,45.383,0,0,1,16.149,2.972,11.077,11.077,0,0,0,9.639-.516c2.146-1.27,4.263-2.616,6.341-3.979a3.551,3.551,0,0,1,2.354-.762,5.223,5.223,0,0,0,5.376-3.107c.677-1.4,1.482-2.709,2.218-4.106a23.084,23.084,0,0,0,2.68-12.191Z" transform="translate(9 6)" fill="#f8f8f8"/>
  </g>
</svg>
