<svg xmlns="http://www.w3.org/2000/svg" xmlns:xlink="http://www.w3.org/1999/xlink" width="221.026" height="221.107" viewBox="0 0 221.026 221.107">
  <defs>
    <filter id="Tracé_68" x="0" y="0" width="221.026" height="221.107" filterUnits="userSpaceOnUse">
      <feOffset dy="3" input="SourceAlpha"/>
      <feGaussianBlur stdDeviation="3" result="blur"/>
      <feFlood flood-opacity="0.859"/>
      <feComposite operator="in" in2="blur"/>
      <feComposite in="SourceGraphic"/>
    </filter>
  </defs>
  <g id="openclassroomslogo" transform="translate(9 5.979)">
    <g transform="matrix(1, 0, 0, 1, -9, -5.98)" filter="url(#Tracé_68)">
      <path id="Tracé_68-2" data-name="Tracé 68" d="M.63,203.107c-1.046-.457-.477-1.371-.477-2.031q-.03-43.353-.03-86.717,0-56.042.025-112.075C.147,1.523-.432.559.63,0a6.012,6.012,0,0,0,3,.244h196.1a8.974,8.974,0,0,1,3.016.168,5.95,5.95,0,0,1,.223,2.752V199.822a8.217,8.217,0,0,1-.162,2.772,6.655,6.655,0,0,1-3,.223H3.62c-1,.051-2.031-.218-3,.289Z" transform="translate(9.01 6)" fill="#fff"/>
    </g>
    <path id="Tracé_69" data-name="Tracé 69" d="M398.929,202.478l.061-3.554V4.347L398.9.539C398.635.3,398.665.1,399-.04c1.051.457.477,1.371.477,2.031q.051,43.922.03,87.844V202.56c-.244.254-.432.229-.574-.1Z" transform="translate(-196.258 0.04)" fill="#fff"/>
    <path id="Tracé_70" data-name="Tracé 70" d="M203.281,398.8l.569.1c-.457,1.046-1.371.477-2.031.477q-42.977.051-85.965.03H1.25c1.148-.8,2.458-.508,3.7-.508Z" transform="translate(-0.61 -196.282)" fill="#fff"/>
    <path id="Tracé_71" data-name="Tracé 71" d="M203.342,0l-.1.579L199.178.513Q102.067.508,4.947.508C3.7.508,2.392.812,1.25,0Z" transform="translate(-0.61 0.02)" fill="#fff"/>
    <path id="Tracé_72" data-name="Tracé 72" d="M135.891,202.384c-14.421.188-27.536-3.986-39.606-11.679-2.833-1.808-2.869-2.234-.68-4.854l19.686-23.571c1.589-1.93,2.96-2.285,5.393-1.193,13.71,6.21,26.78,4.682,38.083-5.215s14.725-22.621,10.155-36.833c-4.529-14.014-14.761-21.956-29.329-23.967a32.281,32.281,0,0,0-19.437,3.585c-1.879.965-3.087.675-4.367-.873q-10.308-12.39-20.7-24.708c-1.346-1.589-1.234-2.691.594-3.859a71.565,71.565,0,0,1,36.427-11.968c18.716-.823,35.544,4.418,49.924,16.411,16.2,13.507,25.16,30.882,26.338,52.1,1.016,18.452-4.133,35.036-15.741,49.335-14.553,17.96-33.563,27.064-56.743,27.293Z" transform="translate(-46.29 -28.118)" fill="#282a36"/>
    <path id="Tracé_73" data-name="Tracé 73" d="M9.172,365.3c2.818,8.531,4.291,10,12.542,12.918C17.063,379.731,8.157,372.023,9.172,365.3ZM200.6,372.256c-1.244,3.554-5.956,6.469-10.1,5.956C194.66,377.5,197.747,375.075,200.6,372.256Z" transform="translate(-4.47 -179.792)" fill="#fff"/>
    <path id="Tracé_74" data-name="Tracé 74" d="M201.028,201.8c.6-2.234,2.082-4.128,2.5-6.433A6.463,6.463,0,0,1,201.028,201.8ZM10.107,24.585c-.691-2.539,1.188-3.961,2.539-5.585.173.112.234.228.178.345s-.117.162-.178.162Z" transform="translate(-4.897 -9.332)" fill="#fff"/>
    <path id="Tracé_75" data-name="Tracé 75" d="M25.82,9.812a20.341,20.341,0,0,1-4.57,2.031C22.428,10.391,23.687,9.122,25.82,9.812Z" transform="translate(-10.455 -4.714)" fill="#fff"/>
    <path id="Tracé_76" data-name="Tracé 76" d="M383.474,17.953a8.454,8.454,0,0,1-2.864-3.143c1.219.782,2.473,1.523,2.864,3.148Z" transform="translate(-187.343 -7.27)" fill="#fff"/>
    <path id="Tracé_77" data-name="Tracé 77" d="M15.25,17.047v-.508c.812-1.092,1.589-2.224,3.047-2.539A11.628,11.628,0,0,1,15.25,17.047Z" transform="translate(-7.501 -6.871)" fill="#fff"/>
    <path id="Tracé_78" data-name="Tracé 78" d="M387.773,24.047A6.159,6.159,0,0,1,386.25,21a2.742,2.742,0,0,1,1.523,2.031.7.7,0,0,1,0,1.016Z" transform="translate(-190.119 -10.317)" fill="#fff"/>
    <path id="Tracé_79" data-name="Tracé 79" d="M30.25,9.151c.508-.675,1.016-1.295,1.98-.508C31.723,9.471,30.895,9,30.25,9.151Zm172.641,0c-.66-.051-1.407.173-2.082-.406C201.876,7.861,202.383,8.481,202.891,9.151Z" transform="translate(-14.885 -4.053)" fill="#fff"/>
    <path id="Tracé_80" data-name="Tracé 80" d="M9.4,30c-.137.645.33,1.447-.508,1.98C8.106,31.016,8.725,30.508,9.4,30Zm192.952,0c.675.508,1.295,1.016.508,1.98C202.033,31.473,202.505,30.65,202.353,30Z" transform="translate(-4.191 -14.747)" fill="#fff"/>
    <path id="Tracé_81" data-name="Tracé 81" d="M371.773,10.234a2.1,2.1,0,0,1-1.523-.508,1.913,1.913,0,0,1,2.539.508.691.691,0,0,1-1.016,0Z" transform="translate(-182.244 -4.628)" fill="#fff"/>
    <path id="Tracé_82" data-name="Tracé 82" d="M373.25,11h1.016c.223.183.731.472.4.66C374.088,11.98,373.661,11.376,373.25,11Z" transform="translate(-183.72 -5.394)" fill="#fff"/>
    <path id="Tracé_83" data-name="Tracé 83" d="M389.245,26.016V25a3.642,3.642,0,0,1,.508,2.539A2.107,2.107,0,0,1,389.245,26.016Z" transform="translate(-191.591 -12.285)" fill="#fff"/>
  </g>
</svg>
