<svg width="57" height="64" viewBox="0 0 57 64" fill="none" xmlns="http://www.w3.org/2000/svg">
<g clip-path="url(#clip0)">
<path d="M5.1 57.237L0 0H56.062L50.962 57.207L27.984 63.571" fill="#336791"/>
<path d="M28.032 58.705V4.698H50.949L46.576 53.529" fill="#6D95B5"/>
<path d="M28 27C30.6809 27 33.1595 26.7471 35.4864 26.2918C37.8132 25.786 39.6342 25.0778 41 24.1167V27C41 27.7588 40.4436 28.5175 39.2802 29.1751C38.1167 29.8327 36.5486 30.3891 34.5253 30.7432C32.5019 31.0973 30.3774 31.3502 28 31.3502C25.6226 31.3502 23.4981 31.1479 21.4747 30.7432C19.4514 30.3385 17.8833 29.8327 16.7198 29.1751C15.5564 28.5175 15 27.8093 15 27V24.1167C16.3658 25.0778 18.1868 25.786 20.5136 26.2918C22.8405 26.7471 25.3191 27 28 27ZM28 40C30.6809 40 33.1595 39.7471 35.4864 39.2918C37.8132 38.786 39.6342 38.0778 41 37.1167V40C41 40.7588 40.4436 41.5175 39.2802 42.1751C38.1167 42.8327 36.5486 43.3891 34.5253 43.7432C32.5019 44.0973 30.3268 44.3502 28 44.3502C25.6732 44.3502 23.4981 44.1479 21.4747 43.7432C19.4514 43.3385 17.8833 42.8327 16.7198 42.1751C15.5564 41.5175 15 40.8093 15 40V37.1167C16.3658 38.0778 18.1868 38.786 20.5136 39.2918C22.8405 39.7471 25.3191 40 28 40ZM28 33.5253C30.6809 33.5253 33.1595 33.2724 35.4864 32.8171C37.8132 32.3619 39.6342 31.6031 41 30.642V33.5253C41 34.284 40.4436 35.0428 39.2802 35.7004C38.1167 36.358 36.5486 36.9144 34.5253 37.2685C32.5019 37.6732 30.3774 37.8755 28 37.8755C25.6226 37.8755 23.4981 37.6732 21.4747 37.2685C19.4514 36.8638 17.8833 36.358 16.7198 35.7004C15.5564 35.0428 15 34.3346 15 33.5253V30.642C16.3658 31.6031 18.1868 32.3113 20.5136 32.8171C22.8405 33.323 25.3191 33.5253 28 33.5253ZM28 14C30.3268 14 32.5019 14.2023 34.5253 14.607C36.5486 15.0117 38.1167 15.5175 39.2802 16.1751C40.4436 16.8327 41 17.5409 41 18.3502V20.5253C41 21.284 40.4436 22.0428 39.2802 22.7004C38.1167 23.358 36.5486 23.9144 34.5253 24.2685C32.5019 24.6226 30.3774 24.8755 28 24.8755C25.6226 24.8755 23.4981 24.6732 21.4747 24.2685C19.4514 23.8638 17.8833 23.358 16.7198 22.7004C15.5564 22.0428 15 21.3346 15 20.5253V18.3502C15 17.5914 15.5564 16.8327 16.7198 16.1751C17.8833 15.5175 19.4514 14.9611 21.4747 14.607C23.4981 14.2023 25.6732 14 28 14Z" fill="#E7E7E7"/>
</g>
<defs>
<clipPath id="clip0">
<rect width="56.062" height="63.571" fill="white"/>
</clipPath>
</defs>
</svg>
