<svg id="Microsoft_Office_Teams__2018_present_" data-name="Microsoft_Office_Teams_(2018–present)" xmlns="http://www.w3.org/2000/svg" xmlns:xlink="http://www.w3.org/1999/xlink" width="128.802" height="119.816" viewBox="0 0 128.802 119.816">
  <defs>
    <linearGradient id="linear-gradient" x1="0.174" y1="1.067" x2="0.826" y2="-0.063" gradientUnits="objectBoundingBox">
      <stop offset="0" stop-color="#5a62c3"/>
      <stop offset="0.5" stop-color="#4d55bd"/>
      <stop offset="1" stop-color="#3940ab"/>
    </linearGradient>
  </defs>
  <path id="Tracé_41" data-name="Tracé 41" d="M1506.14,777.5h33.27a5.691,5.691,0,0,1,5.691,5.691h0v30.3a20.917,20.917,0,0,1-20.916,20.917h-.1a20.917,20.917,0,0,1-20.92-20.914V780.474a2.974,2.974,0,0,1,2.974-2.974Z" transform="translate(-1416.299 -732.569)" fill="#5059c9"/>
  <ellipse id="Ellipse_1" data-name="Ellipse 1" cx="13.479" cy="13.479" rx="13.479" ry="13.479" transform="translate(98.848 11.982)" fill="#5059c9"/>
  <ellipse id="Ellipse_2" data-name="Ellipse 2" cx="19.47" cy="19.47" rx="19.47" ry="19.47" transform="translate(50.922)" fill="#7b83eb"/>
  <path id="Tracé_42" data-name="Tracé 42" d="M682.256,777.5H627.338a5.631,5.631,0,0,0-5.49,5.76v34.564a32.987,32.987,0,1,0,65.9,0V783.26A5.631,5.631,0,0,0,682.256,777.5Z" transform="translate(-585.903 -732.569)" fill="#7b83eb"/>
  <path id="Tracé_43" data-name="Tracé 43" d="M657.919,777.5v48.436A5.515,5.515,0,0,1,654.5,831a5.3,5.3,0,0,1-2.067.42H624.61c-.39-.989-.749-1.977-1.049-3a36.476,36.476,0,0,1-1.588-10.6V783.251a5.622,5.622,0,0,1,5.482-5.751Z" transform="translate(-586.029 -732.569)" opacity="0.1"/>
  <path id="Tracé_44" data-name="Tracé 44" d="M654.923,777.5v51.431A5.308,5.308,0,0,1,654.5,831a5.516,5.516,0,0,1-5.062,3.415H626.018c-.509-.989-.989-1.977-1.408-3a29.58,29.58,0,0,1-1.049-3,36.476,36.476,0,0,1-1.588-10.6V783.251a5.622,5.622,0,0,1,5.482-5.751Z" transform="translate(-586.029 -732.569)" opacity="0.2"/>
  <path id="Tracé_45" data-name="Tracé 45" d="M654.924,777.5v45.44a5.522,5.522,0,0,1-5.481,5.482h-25.88a36.457,36.457,0,0,1-1.588-10.6V783.251a5.622,5.622,0,0,1,5.482-5.751Z" transform="translate(-586.03 -732.569)" opacity="0.2"/>
  <path id="Tracé_46" data-name="Tracé 46" d="M651.929,777.5v45.44a5.524,5.524,0,0,1-5.482,5.482H623.563a36.482,36.482,0,0,1-1.588-10.6V783.251a5.623,5.623,0,0,1,5.482-5.751Z" transform="translate(-586.03 -732.569)" opacity="0.2"/>
  <path id="Tracé_47" data-name="Tracé 47" d="M910.925,420.15v9.436c-.509.03-.989.06-1.5.06s-.988-.03-1.5-.06a16.46,16.46,0,0,1-3-.479,19.471,19.471,0,0,1-13.479-11.443,16.662,16.662,0,0,1-.959-3h14.947A5.5,5.5,0,0,1,910.925,420.15Z" transform="translate(-839.035 -390.704)" opacity="0.1"/>
  <path id="Tracé_48" data-name="Tracé 48" d="M923.559,471.982v6.44a16.488,16.488,0,0,1-3-.48A19.47,19.47,0,0,1,907.084,466.5h10.993A5.5,5.5,0,0,1,923.559,471.982Z" transform="translate(-854.664 -439.542)" opacity="0.2"/>
  <path id="Tracé_49" data-name="Tracé 49" d="M923.559,471.982v6.44a16.488,16.488,0,0,1-3-.48A19.47,19.47,0,0,1,907.084,466.5h10.993A5.5,5.5,0,0,1,923.559,471.982Z" transform="translate(-854.664 -439.542)" opacity="0.2"/>
  <path id="Tracé_50" data-name="Tracé 50" d="M920.562,471.982v5.961A19.471,19.471,0,0,1,907.083,466.5h8A5.5,5.5,0,0,1,920.562,471.982Z" transform="translate(-854.664 -439.541)" opacity="0.2"/>
  <path id="Tracé_51" data-name="Tracé 51" d="M5.491,466.5H60.408a5.49,5.49,0,0,1,5.491,5.49v54.918a5.491,5.491,0,0,1-5.491,5.491H5.491A5.491,5.491,0,0,1,0,526.908V471.99A5.49,5.49,0,0,1,5.491,466.5Z" transform="translate(0 -439.541)" fill="url(#linear-gradient)"/>
  <path id="Tracé_52" data-name="Tracé 52" d="M349.023,733.643H338.045v29.894h-6.994V733.643H320.123v-5.8h28.9Z" transform="translate(-301.623 -685.782)" fill="#fff"/>
</svg>
