<svg xmlns="http://www.w3.org/2000/svg" width="45.4" height="36.897" viewBox="0 0 45.4 36.897">
  <g id="layer1" transform="translate(0 0)">
    <path id="path3611" d="M554.458,606.755c17.133,0,26.5-14.194,26.5-26.5q0-.6-.026-1.2a18.941,18.941,0,0,0,4.646-4.823,18.572,18.572,0,0,1-5.349,1.466,9.347,9.347,0,0,0,4.1-5.152,18.68,18.68,0,0,1-5.915,2.261,9.323,9.323,0,0,0-15.873,8.495,26.447,26.447,0,0,1-19.2-9.732A9.323,9.323,0,0,0,546.223,584,9.246,9.246,0,0,1,542,582.833c0,.039,0,.077,0,.119a9.317,9.317,0,0,0,7.473,9.131,9.3,9.3,0,0,1-4.207.16,9.324,9.324,0,0,0,8.7,6.47A18.686,18.686,0,0,1,542.4,602.7a18.93,18.93,0,0,1-2.222-.129,26.367,26.367,0,0,0,14.279,4.184" transform="translate(-540.179 -569.858)" fill="#282a36"/>
  </g>
</svg>
