<svg id="Groupe_77" data-name="Groupe 77" xmlns="http://www.w3.org/2000/svg" width="55.989" height="63.488" viewBox="0 0 55.989 63.488">
  <g id="JAVASCRIPTLogo" transform="translate(0 0)">
    <g id="HTML5Logo">
      <path id="Tracé_2" data-name="Tracé 2" d="M79.693,157.762,74.6,100.6h55.989L125.5,157.732l-22.948,6.356" transform="translate(-74.6 -100.6)" fill="#005d9b"/>
      <path id="Tracé_3" data-name="Tracé 3" d="M256,184.936V131h22.887l-4.367,48.767" transform="translate(-228.005 -126.309)" fill="#007acc"/>
    </g>
    <path id="Tracé_9" data-name="Tracé 9" d="M213.36,310.022a13.74,13.74,0,0,0,.957,1.373,7.017,7.017,0,0,0,5.872,2.832c2.869,0,4.7-1.434,4.7-3.415,0-2.374-1.883-3.216-5.043-4.6l-1.731-.743c-5-2.129-8.316-4.8-8.316-10.432,0-5.194,3.957-9.147,10.141-9.147,4.4,0,7.568,1.532,9.849,5.545L224.4,294.9c-1.188-2.129-2.468-2.971-4.457-2.971a3.015,3.015,0,0,0-3.316,2.971c0,2.077,1.286,2.918,4.258,4.205l1.731.741c5.884,2.523,9.205,5.095,9.205,10.878,0,6.235-4.9,9.65-11.475,9.65a16.357,16.357,0,0,1-6.108-1.109,12.291,12.291,0,0,1-6.511-5.972Z" transform="translate(-183.812 -271.347)" fill="#fff"/>
  </g>
  <path id="Tracé_15" data-name="Tracé 15" d="M26.279,30.662l.024-3.057H16.587V0H9.715V27.606H0v3a29.371,29.371,0,0,0,.083,3.08c.036.047,5.948.071,13.116.059l13.045-.036Z" transform="translate(32.786 48.811) rotate(180)" fill="#ebebeb"/>
</svg>
