<svg id="layer1" xmlns="http://www.w3.org/2000/svg" xmlns:xlink="http://www.w3.org/1999/xlink" width="120.596" height="123.597" viewBox="0 0 120.596 123.597">
  <defs>
    <filter id="circle71" x="71.481" y="83.884" width="40.448" height="39.713" filterUnits="userSpaceOnUse">
      <feOffset dy="3" input="SourceAlpha"/>
      <feGaussianBlur stdDeviation="3" result="blur"/>
      <feFlood flood-opacity="0.161"/>
      <feComposite operator="in" in2="blur"/>
      <feComposite in="SourceGraphic"/>
    </filter>
    <filter id="path75" x="35.908" y="53.608" width="84.689" height="59.551" filterUnits="userSpaceOnUse">
      <feOffset dy="3" input="SourceAlpha"/>
      <feGaussianBlur stdDeviation="3" result="blur-2"/>
      <feFlood flood-opacity="0.161"/>
      <feComposite operator="in" in2="blur-2"/>
      <feComposite in="SourceGraphic"/>
    </filter>
    <filter id="path77" x="10.959" y="12.564" width="45.769" height="92.483" filterUnits="userSpaceOnUse">
      <feOffset dy="3" input="SourceAlpha"/>
      <feGaussianBlur stdDeviation="3" result="blur-3"/>
      <feFlood flood-opacity="0.161"/>
      <feComposite operator="in" in2="blur-3"/>
      <feComposite in="SourceGraphic"/>
    </filter>
  </defs>
  <g id="g67" transform="translate(0 0)" style="isolation: isolate">
    <ellipse id="circle69" cx="11.224" cy="10.856" rx="11.224" ry="10.856" transform="translate(0 44.951)" fill="#ff6309"/>
    <g transform="matrix(1, 0, 0, 1, 0, 0)" filter="url(#circle71)">
      <ellipse id="circle71-2" data-name="circle71" cx="11.224" cy="10.856" rx="11.224" ry="10.856" transform="translate(80.48 89.88)" fill="#ffb515"/>
    </g>
    <path id="path73" d="M130.638,44.26c13.976,0,25.571,10.038,27.491,23.051h19.23a44.3,44.3,0,0,0-12.584-27.273,16.561,16.561,0,0,1-15.366-.381,15.494,15.494,0,0,1-8.025-12.692,48.812,48.812,0,0,0-10.745-1.192,48.06,48.06,0,0,0-19.964,4.291L120.3,46.193A28.445,28.445,0,0,1,130.638,44.26Z" transform="translate(-65.762 -15.317)" fill="#ff6309"/>
    <g transform="matrix(1, 0, 0, 1, 0, 0)" filter="url(#path75)">
      <path id="path75-2" data-name="path75" d="M158.124,146.893c-1.915,13.018-13.513,23.062-27.493,23.062a28.406,28.406,0,0,1-10.341-1.935l-9.628,16.13a48.047,48.047,0,0,0,19.968,4.293,48.884,48.884,0,0,0,10.754-1.195,15.493,15.493,0,0,1,8.026-12.708,16.55,16.55,0,0,1,15.371-.378,44.3,44.3,0,0,0,12.571-27.27Z" transform="translate(-65.75 -87.29)" fill="#c90016"/>
    </g>
    <g transform="matrix(1, 0, 0, 1, 0, 0)" filter="url(#path77)">
      <path id="path77-2" data-name="path77" d="M66.329,83A26.526,26.526,0,0,1,76.953,61.879L67.328,45.753a47.205,47.205,0,0,0-6.382,5.175A44.851,44.851,0,0,0,49.183,69.92a15.292,15.292,0,0,1,0,26.15,44.851,44.851,0,0,0,11.763,18.993,47.245,47.245,0,0,0,6.377,5.174l9.626-16.127A26.524,26.524,0,0,1,66.329,83Z" transform="translate(-29.22 -27.19)" fill="#ffb515"/>
    </g>
    <ellipse id="circle79" cx="11.224" cy="10.856" rx="11.224" ry="10.856" transform="translate(80.471 0)" fill="#c90016"/>
  </g>
</svg>
