<svg xmlns="http://www.w3.org/2000/svg" xmlns:xlink="http://www.w3.org/1999/xlink" width="266.281" height="221" viewBox="0 0 266.281 221">
  <defs>
    <filter id="Tracé_90" x="0" y="0" width="266.281" height="221" filterUnits="userSpaceOnUse">
      <feOffset dy="3" input="SourceAlpha"/>
      <feGaussianBlur stdDeviation="3" result="blur"/>
      <feFlood flood-opacity="0.769"/>
      <feComposite operator="in" in2="blur"/>
      <feComposite in="SourceGraphic"/>
    </filter>
  </defs>
  <g id="UdemyLogo" transform="translate(9 6)">
    <g transform="matrix(1, 0, 0, 1, -9, -6)" filter="url(#Tracé_90)">
      <path id="Tracé_90-2" data-name="Tracé 90" d="M244.11,115.69a6.6,6.6,0,0,0-2.919-1.372,140.509,140.509,0,0,1-20.819,17.345,19.277,19.277,0,0,1-9.737,3.14c-6.039,0-8.664-5.758-9.452-14.912-1.05-12.3-1.76-27.022-1.76-49.782,0-23.344-5.3-39.214-19.41-40.458-.6-.053-1.2-.09-1.828-.09-8.665,0-12.866,4.446-18.378,15.7-4.726,9.678-12.076,23.8-25.727,50.488-11.814,23.023-24.94,43.428-36.231,57.555-3.144,3.915-5.629,6.605-7.965,8.136a8.282,8.282,0,0,1-4.635,1.541c-4.456,0-7.708-3.761-8.8-12.516a57.953,57.953,0,0,1-.394-7.1c0-18.05,6.828-47.35,18.639-90.516C103.362,21.451,99.688,0,80.783,0h-.211l-.012,0A17.939,17.939,0,0,0,69.31,4.3c-3.365,2.65-6.735,8.375-9.879,16.072C55.886,29.036,34.331,72.273.024,94.546c-.4,8.468,4.39,16.933,14.1,17.851,8.843.838,15.122-2.889,23.206-8.319q-1.626,7.249-3.2,14.511c-.617,2.826-1.007,4.646-1.124,5.149a144.474,144.474,0,0,0-2.444,14.689C25.723,181.666,45.764,203,69.234,203A47.129,47.129,0,0,0,80.9,201.554c25.859-6.557,50.754-36.219,80.219-104.5a189.292,189.292,0,0,0-.172,20.8c1.94,39.134,17.419,50.876,39.288,50.876,16.54,0,32.029-8.631,39.9-19.358,5.777-7.587,8.14-15.959,8.14-22.5,0-5.077-1.611-9.129-4.171-11.186" transform="translate(9 6)" fill="#f8f8f8" fill-rule="evenodd"/>
    </g>
  </g>
</svg>
